Coordinates
version=1
nRows=21
nColumns=12
inDegrees=yes

Units are S.I. units (second, meters, Newtons, ...)
Angles are in degrees

endheader
time	SC_y	SC_z	SC_x	AC_y	AC_z	AC_x	GH_y	GH_z	GH_yy	EL_x	PS_y
       0.0              -31.16          18.15          48.64          51.51         -7.663          13.62         -72.98          71.46          81.84          130.4           20.9
    0.0156              -31.17          18.15          48.64          51.51         -7.664          13.62         -72.97          71.46          81.83          130.4           20.9
    0.0312              -31.17          18.15          48.64           51.5         -7.665          13.62         -72.96          71.46          81.81          130.4          20.91
    0.0468              -31.18          18.16          48.64           51.5         -7.666          13.62         -72.95          71.45           81.8          130.4          20.91
    0.0624              -31.18          18.16          48.64           51.5         -7.667          13.62         -72.94          71.45          81.79          130.4          20.91
     0.078              -31.19          18.16          48.64           51.5         -7.669          13.62         -72.93          71.44          81.77          130.4          20.92
    0.0936              -31.19          18.16          48.63           51.5          -7.67          13.62         -72.92          71.43          81.76          130.4          20.92
    0.1092               -31.2          18.17          48.63           51.5         -7.672          13.62          -72.9          71.43          81.74          130.4          20.92
    0.1248               -31.2          18.17          48.63           51.5         -7.673          13.63         -72.89          71.42          81.72          130.4          20.93
    0.1404              -31.21          18.17          48.63           51.5         -7.675          13.63         -72.87          71.41           81.7          130.4          20.93
     0.156              -31.22          18.18          48.63          51.49         -7.677          13.63         -72.86          71.41          81.68          130.4          20.94
    0.1716              -31.22          18.18          48.63          51.49         -7.679          13.63         -72.84           71.4          81.66          130.4          20.94
    0.1872              -31.23          18.19          48.63          51.49         -7.681          13.63         -72.82          71.39          81.63          130.4          20.95
    0.2028              -31.24          18.19          48.63          51.49         -7.683          13.63          -72.8          71.38          81.61          130.4          20.95
    0.2184              -31.25           18.2          48.62          51.49         -7.686          13.63         -72.77          71.37          81.58          130.4          20.96
     0.234              -31.26           18.2          48.62          51.48         -7.688          13.63         -72.75          71.36          81.54          130.4          20.97
    0.2496              -31.27          18.21          48.62          51.48         -7.691          13.63         -72.72          71.35          81.51          130.4          20.97
    0.2652              -31.28          18.22          48.62          51.48         -7.695          13.64         -72.69          71.33          81.47          130.4          20.98
    0.2808               -31.3          18.23          48.61          51.47         -7.698          13.64         -72.66          71.32          81.43          130.4          20.99
    0.2964              -31.31          18.23          48.61          51.47         -7.702          13.64         -72.63           71.3          81.39          130.4           21.0
     0.312              -31.33          18.24          48.61          51.47         -7.706          13.64         -72.59          71.28          81.34          130.4          21.01
